solid ascii
  facet normal -1.000000e+00 0.000000e+00 0.000000e+00
    outer loop
      vertex   -7.502666e-01 7.424973e+01 7.502666e-01
      vertex   -7.502666e-01 3.750000e+01 7.502666e-01
      vertex   -7.502666e-01 7.424973e+01 1.249733e+00
    endloop
  endfacet
  facet normal -1.000000e+00 -0.000000e+00 0.000000e+00
    outer loop
      vertex   -7.502666e-01 7.424973e+01 1.249733e+00
      vertex   -7.502666e-01 3.750000e+01 7.502666e-01
      vertex   -7.502666e-01 3.750000e+01 1.249733e+00
    endloop
  endfacet
  facet normal -1.000000e+00 -0.000000e+00 -0.000000e+00
    outer loop
      vertex   -7.502666e-01 3.750000e+01 1.249733e+00
      vertex   -7.502666e-01 3.750000e+01 7.502666e-01
      vertex   -7.502666e-01 7.502666e-01 7.502666e-01
    endloop
  endfacet
  facet normal -1.000000e+00 0.000000e+00 -0.000000e+00
    outer loop
      vertex   -7.502666e-01 7.502666e-01 1.249733e+00
      vertex   -7.502666e-01 3.750000e+01 1.249733e+00
      vertex   -7.502666e-01 7.502666e-01 7.502666e-01
    endloop
  endfacet
  facet normal 0.000000e+00 1.000000e+00 -0.000000e+00
    outer loop
      vertex   -7.502666e-01 7.502666e-01 7.502666e-01
      vertex   -4.424973e+01 7.502666e-01 7.502666e-01
      vertex   -7.502666e-01 7.502666e-01 1.249733e+00
    endloop
  endfacet
  facet normal 0.000000e+00 1.000000e+00 -0.000000e+00
    outer loop
      vertex   -7.502666e-01 7.502666e-01 1.249733e+00
      vertex   -4.424973e+01 7.502666e-01 7.502666e-01
      vertex   -4.424973e+01 7.502666e-01 1.249733e+00
    endloop
  endfacet
  facet normal 1.000000e+00 0.000000e+00 -0.000000e+00
    outer loop
      vertex   -4.424973e+01 7.502666e-01 7.502666e-01
      vertex   -4.424973e+01 3.750000e+01 7.502666e-01
      vertex   -4.424973e+01 7.502666e-01 1.249733e+00
    endloop
  endfacet
  facet normal 1.000000e+00 -0.000000e+00 0.000000e+00
    outer loop
      vertex   -4.424973e+01 7.502666e-01 1.249733e+00
      vertex   -4.424973e+01 3.750000e+01 7.502666e-01
      vertex   -4.424973e+01 3.750000e+01 1.249733e+00
    endloop
  endfacet
  facet normal 1.000000e+00 -0.000000e+00 0.000000e+00
    outer loop
      vertex   -4.424973e+01 3.750000e+01 1.249733e+00
      vertex   -4.424973e+01 3.750000e+01 7.502666e-01
      vertex   -4.424973e+01 7.424973e+01 7.502666e-01
    endloop
  endfacet
  facet normal 1.000000e+00 0.000000e+00 0.000000e+00
    outer loop
      vertex   -4.424973e+01 7.424973e+01 1.249733e+00
      vertex   -4.424973e+01 3.750000e+01 1.249733e+00
      vertex   -4.424973e+01 7.424973e+01 7.502666e-01
    endloop
  endfacet
  facet normal 0.000000e+00 -1.000000e+00 0.000000e+00
    outer loop
      vertex   -4.424973e+01 7.424973e+01 7.502666e-01
      vertex   -7.502666e-01 7.424973e+01 7.502666e-01
      vertex   -4.424973e+01 7.424973e+01 1.249733e+00
    endloop
  endfacet
  facet normal 0.000000e+00 -1.000000e+00 0.000000e+00
    outer loop
      vertex   -4.424973e+01 7.424973e+01 1.249733e+00
      vertex   -7.502666e-01 7.424973e+01 7.502666e-01
      vertex   -7.502666e-01 7.424973e+01 1.249733e+00
    endloop
  endfacet
  facet normal 0.000000e+00 -6.042074e-18 -1.000000e+00
    outer loop
      vertex   -4.424973e+01 7.424973e+01 1.249733e+00
      vertex   -7.502666e-01 7.424973e+01 1.249733e+00
      vertex   -4.424973e+01 3.750000e+01 1.249733e+00
    endloop
  endfacet
  facet normal 0.000000e+00 -6.042074e-18 -1.000000e+00
    outer loop
      vertex   -4.424973e+01 3.750000e+01 1.249733e+00
      vertex   -7.502666e-01 7.424973e+01 1.249733e+00
      vertex   -7.502666e-01 3.750000e+01 1.249733e+00
    endloop
  endfacet
  facet normal 0.000000e+00 6.042074e-18 -1.000000e+00
    outer loop
      vertex   -4.424973e+01 7.502666e-01 1.249733e+00
      vertex   -7.502666e-01 3.750000e+01 1.249733e+00
      vertex   -7.502666e-01 7.502666e-01 1.249733e+00
    endloop
  endfacet
  facet normal 0.000000e+00 6.042074e-18 -1.000000e+00
    outer loop
      vertex   -4.424973e+01 7.502666e-01 1.249733e+00
      vertex   -4.424973e+01 3.750000e+01 1.249733e+00
      vertex   -7.502666e-01 3.750000e+01 1.249733e+00
    endloop
  endfacet
  facet normal 0.000000e+00 0.000000e+00 1.000000e+00
    outer loop
      vertex   -7.502666e-01 7.424973e+01 7.502666e-01
      vertex   -4.424973e+01 7.424973e+01 7.502666e-01
      vertex   -7.502666e-01 3.750000e+01 7.502666e-01
    endloop
  endfacet
  facet normal 0.000000e+00 0.000000e+00 1.000000e+00
    outer loop
      vertex   -7.502666e-01 3.750000e+01 7.502666e-01
      vertex   -4.424973e+01 7.424973e+01 7.502666e-01
      vertex   -4.424973e+01 3.750000e+01 7.502666e-01
    endloop
  endfacet
  facet normal 0.000000e+00 0.000000e+00 1.000000e+00
    outer loop
      vertex   -7.502666e-01 7.502666e-01 7.502666e-01
      vertex   -4.424973e+01 3.750000e+01 7.502666e-01
      vertex   -4.424973e+01 7.502666e-01 7.502666e-01
    endloop
  endfacet
  facet normal 0.000000e+00 -0.000000e+00 1.000000e+00
    outer loop
      vertex   -7.502666e-01 7.502666e-01 7.502666e-01
      vertex   -7.502666e-01 3.750000e+01 7.502666e-01
      vertex   -4.424973e+01 3.750000e+01 7.502666e-01
    endloop
  endfacet
  facet normal 1.000000e+00 0.000000e+00 0.000000e+00
    outer loop
      vertex   -4.300000e+01 7.300000e+01 1.200000e+01
      vertex   -4.300000e+01 3.750000e+01 1.200000e+01
      vertex   -4.300000e+01 7.300000e+01 2.000000e+00
    endloop
  endfacet
  facet normal 1.000000e+00 0.000000e+00 0.000000e+00
    outer loop
      vertex   -4.300000e+01 7.300000e+01 2.000000e+00
      vertex   -4.300000e+01 3.750000e+01 1.200000e+01
      vertex   -4.300000e+01 3.750000e+01 2.000000e+00
    endloop
  endfacet
  facet normal 1.000000e+00 0.000000e+00 -0.000000e+00
    outer loop
      vertex   -4.300000e+01 3.750000e+01 2.000000e+00
      vertex   -4.300000e+01 3.750000e+01 1.200000e+01
      vertex   -4.300000e+01 2.000000e+00 1.200000e+01
    endloop
  endfacet
  facet normal 1.000000e+00 0.000000e+00 -0.000000e+00
    outer loop
      vertex   -4.300000e+01 2.000000e+00 2.000000e+00
      vertex   -4.300000e+01 3.750000e+01 2.000000e+00
      vertex   -4.300000e+01 2.000000e+00 1.200000e+01
    endloop
  endfacet
  facet normal -0.000000e+00 -1.000000e+00 -0.000000e+00
    outer loop
      vertex   -2.000000e+00 7.300000e+01 1.200000e+01
      vertex   -4.300000e+01 7.300000e+01 1.200000e+01
      vertex   -2.000000e+00 7.300000e+01 2.000000e+00
    endloop
  endfacet
  facet normal -0.000000e+00 -1.000000e+00 -0.000000e+00
    outer loop
      vertex   -2.000000e+00 7.300000e+01 2.000000e+00
      vertex   -4.300000e+01 7.300000e+01 1.200000e+01
      vertex   -4.300000e+01 7.300000e+01 2.000000e+00
    endloop
  endfacet
  facet normal -1.000000e+00 0.000000e+00 -0.000000e+00
    outer loop
      vertex   -2.000000e+00 2.000000e+00 1.200000e+01
      vertex   -2.000000e+00 3.750000e+01 1.200000e+01
      vertex   -2.000000e+00 2.000000e+00 2.000000e+00
    endloop
  endfacet
  facet normal -1.000000e+00 0.000000e+00 0.000000e+00
    outer loop
      vertex   -2.000000e+00 2.000000e+00 2.000000e+00
      vertex   -2.000000e+00 3.750000e+01 1.200000e+01
      vertex   -2.000000e+00 3.750000e+01 2.000000e+00
    endloop
  endfacet
  facet normal -1.000000e+00 0.000000e+00 0.000000e+00
    outer loop
      vertex   -2.000000e+00 3.750000e+01 2.000000e+00
      vertex   -2.000000e+00 3.750000e+01 1.200000e+01
      vertex   -2.000000e+00 7.300000e+01 1.200000e+01
    endloop
  endfacet
  facet normal -1.000000e+00 0.000000e+00 0.000000e+00
    outer loop
      vertex   -2.000000e+00 7.300000e+01 2.000000e+00
      vertex   -2.000000e+00 3.750000e+01 2.000000e+00
      vertex   -2.000000e+00 7.300000e+01 1.200000e+01
    endloop
  endfacet
  facet normal -0.000000e+00 1.000000e+00 0.000000e+00
    outer loop
      vertex   -4.300000e+01 2.000000e+00 1.200000e+01
      vertex   -2.000000e+00 2.000000e+00 1.200000e+01
      vertex   -4.300000e+01 2.000000e+00 2.000000e+00
    endloop
  endfacet
  facet normal -0.000000e+00 1.000000e+00 0.000000e+00
    outer loop
      vertex   -4.300000e+01 2.000000e+00 2.000000e+00
      vertex   -2.000000e+00 2.000000e+00 1.200000e+01
      vertex   -2.000000e+00 2.000000e+00 2.000000e+00
    endloop
  endfacet
  facet normal 0.000000e+00 -0.000000e+00 1.000000e+00
    outer loop
      vertex   -4.300000e+01 2.000000e+00 2.000000e+00
      vertex   -2.000000e+00 2.000000e+00 2.000000e+00
      vertex   -4.300000e+01 3.750000e+01 2.000000e+00
    endloop
  endfacet
  facet normal -0.000000e+00 0.000000e+00 1.000000e+00
    outer loop
      vertex   -4.300000e+01 3.750000e+01 2.000000e+00
      vertex   -2.000000e+00 2.000000e+00 2.000000e+00
      vertex   -2.000000e+00 3.750000e+01 2.000000e+00
    endloop
  endfacet
  facet normal -0.000000e+00 0.000000e+00 1.000000e+00
    outer loop
      vertex   -4.300000e+01 7.300000e+01 2.000000e+00
      vertex   -2.000000e+00 3.750000e+01 2.000000e+00
      vertex   -2.000000e+00 7.300000e+01 2.000000e+00
    endloop
  endfacet
  facet normal 0.000000e+00 0.000000e+00 1.000000e+00
    outer loop
      vertex   -4.300000e+01 7.300000e+01 2.000000e+00
      vertex   -4.300000e+01 3.750000e+01 2.000000e+00
      vertex   -2.000000e+00 3.750000e+01 2.000000e+00
    endloop
  endfacet
  facet normal 1.000000e+00 0.000000e+00 -0.000000e+00
    outer loop
      vertex   0.000000e+00 0.000000e+00 0.000000e+00
      vertex   0.000000e+00 3.750000e+01 0.000000e+00
      vertex   0.000000e+00 0.000000e+00 1.200000e+01
    endloop
  endfacet
  facet normal 1.000000e+00 -0.000000e+00 0.000000e+00
    outer loop
      vertex   0.000000e+00 0.000000e+00 1.200000e+01
      vertex   0.000000e+00 3.750000e+01 0.000000e+00
      vertex   0.000000e+00 3.750000e+01 1.200000e+01
    endloop
  endfacet
  facet normal 1.000000e+00 -0.000000e+00 0.000000e+00
    outer loop
      vertex   0.000000e+00 3.750000e+01 1.200000e+01
      vertex   0.000000e+00 3.750000e+01 0.000000e+00
      vertex   0.000000e+00 7.500000e+01 0.000000e+00
    endloop
  endfacet
  facet normal 1.000000e+00 0.000000e+00 0.000000e+00
    outer loop
      vertex   0.000000e+00 7.500000e+01 1.200000e+01
      vertex   0.000000e+00 3.750000e+01 1.200000e+01
      vertex   0.000000e+00 7.500000e+01 0.000000e+00
    endloop
  endfacet
  facet normal 0.000000e+00 -1.000000e+00 0.000000e+00
    outer loop
      vertex   -4.500000e+01 0.000000e+00 0.000000e+00
      vertex   0.000000e+00 0.000000e+00 0.000000e+00
      vertex   -4.500000e+01 0.000000e+00 1.200000e+01
    endloop
  endfacet
  facet normal 0.000000e+00 -1.000000e+00 0.000000e+00
    outer loop
      vertex   -4.500000e+01 0.000000e+00 1.200000e+01
      vertex   0.000000e+00 0.000000e+00 0.000000e+00
      vertex   0.000000e+00 0.000000e+00 1.200000e+01
    endloop
  endfacet
  facet normal -1.000000e+00 0.000000e+00 0.000000e+00
    outer loop
      vertex   -4.500000e+01 7.500000e+01 0.000000e+00
      vertex   -4.500000e+01 3.750000e+01 0.000000e+00
      vertex   -4.500000e+01 7.500000e+01 1.200000e+01
    endloop
  endfacet
  facet normal -1.000000e+00 -0.000000e+00 0.000000e+00
    outer loop
      vertex   -4.500000e+01 7.500000e+01 1.200000e+01
      vertex   -4.500000e+01 3.750000e+01 0.000000e+00
      vertex   -4.500000e+01 3.750000e+01 1.200000e+01
    endloop
  endfacet
  facet normal -1.000000e+00 -0.000000e+00 -0.000000e+00
    outer loop
      vertex   -4.500000e+01 3.750000e+01 1.200000e+01
      vertex   -4.500000e+01 3.750000e+01 0.000000e+00
      vertex   -4.500000e+01 0.000000e+00 0.000000e+00
    endloop
  endfacet
  facet normal -1.000000e+00 0.000000e+00 -0.000000e+00
    outer loop
      vertex   -4.500000e+01 0.000000e+00 1.200000e+01
      vertex   -4.500000e+01 3.750000e+01 1.200000e+01
      vertex   -4.500000e+01 0.000000e+00 0.000000e+00
    endloop
  endfacet
  facet normal 0.000000e+00 1.000000e+00 -0.000000e+00
    outer loop
      vertex   0.000000e+00 7.500000e+01 0.000000e+00
      vertex   -4.500000e+01 7.500000e+01 0.000000e+00
      vertex   0.000000e+00 7.500000e+01 1.200000e+01
    endloop
  endfacet
  facet normal 0.000000e+00 1.000000e+00 -0.000000e+00
    outer loop
      vertex   0.000000e+00 7.500000e+01 1.200000e+01
      vertex   -4.500000e+01 7.500000e+01 0.000000e+00
      vertex   -4.500000e+01 7.500000e+01 1.200000e+01
    endloop
  endfacet
  facet normal 0.000000e+00 -0.000000e+00 1.000000e+00
    outer loop
      vertex   -2.000000e+00 3.750000e+01 1.200000e+01
      vertex   0.000000e+00 3.750000e+01 1.200000e+01
      vertex   -2.000000e+00 7.300000e+01 1.200000e+01
    endloop
  endfacet
  facet normal -0.000000e+00 0.000000e+00 1.000000e+00
    outer loop
      vertex   -2.000000e+00 3.750000e+01 1.200000e+01
      vertex   -2.000000e+00 2.000000e+00 1.200000e+01
      vertex   0.000000e+00 3.750000e+01 1.200000e+01
    endloop
  endfacet
  facet normal 0.000000e+00 0.000000e+00 1.000000e+00
    outer loop
      vertex   0.000000e+00 3.750000e+01 1.200000e+01
      vertex   -2.000000e+00 2.000000e+00 1.200000e+01
      vertex   0.000000e+00 0.000000e+00 1.200000e+01
    endloop
  endfacet
  facet normal 0.000000e+00 0.000000e+00 1.000000e+00
    outer loop
      vertex   0.000000e+00 0.000000e+00 1.200000e+01
      vertex   -2.000000e+00 2.000000e+00 1.200000e+01
      vertex   -4.300000e+01 2.000000e+00 1.200000e+01
    endloop
  endfacet
  facet normal 0.000000e+00 -0.000000e+00 1.000000e+00
    outer loop
      vertex   -4.500000e+01 0.000000e+00 1.200000e+01
      vertex   -4.300000e+01 2.000000e+00 1.200000e+01
      vertex   -4.500000e+01 3.750000e+01 1.200000e+01
    endloop
  endfacet
  facet normal 0.000000e+00 -0.000000e+00 1.000000e+00
    outer loop
      vertex   -4.500000e+01 0.000000e+00 1.200000e+01
      vertex   0.000000e+00 0.000000e+00 1.200000e+01
      vertex   -4.300000e+01 2.000000e+00 1.200000e+01
    endloop
  endfacet
  facet normal 0.000000e+00 -0.000000e+00 1.000000e+00
    outer loop
      vertex   -4.300000e+01 2.000000e+00 1.200000e+01
      vertex   -4.300000e+01 3.750000e+01 1.200000e+01
      vertex   -4.500000e+01 3.750000e+01 1.200000e+01
    endloop
  endfacet
  facet normal 0.000000e+00 0.000000e+00 1.000000e+00
    outer loop
      vertex   -4.500000e+01 3.750000e+01 1.200000e+01
      vertex   -4.300000e+01 3.750000e+01 1.200000e+01
      vertex   -4.300000e+01 7.300000e+01 1.200000e+01
    endloop
  endfacet
  facet normal -0.000000e+00 0.000000e+00 1.000000e+00
    outer loop
      vertex   -4.500000e+01 7.500000e+01 1.200000e+01
      vertex   -4.300000e+01 7.300000e+01 1.200000e+01
      vertex   -2.000000e+00 7.300000e+01 1.200000e+01
    endloop
  endfacet
  facet normal 0.000000e+00 0.000000e+00 1.000000e+00
    outer loop
      vertex   0.000000e+00 7.500000e+01 1.200000e+01
      vertex   -2.000000e+00 7.300000e+01 1.200000e+01
      vertex   0.000000e+00 3.750000e+01 1.200000e+01
    endloop
  endfacet
  facet normal 0.000000e+00 0.000000e+00 1.000000e+00
    outer loop
      vertex   0.000000e+00 7.500000e+01 1.200000e+01
      vertex   -4.500000e+01 7.500000e+01 1.200000e+01
      vertex   -2.000000e+00 7.300000e+01 1.200000e+01
    endloop
  endfacet
  facet normal 0.000000e+00 -0.000000e+00 1.000000e+00
    outer loop
      vertex   -4.500000e+01 3.750000e+01 1.200000e+01
      vertex   -4.300000e+01 7.300000e+01 1.200000e+01
      vertex   -4.500000e+01 7.500000e+01 1.200000e+01
    endloop
  endfacet
  facet normal 0.000000e+00 -0.000000e+00 -1.000000e+00
    outer loop
      vertex   -4.500000e+01 7.500000e+01 0.000000e+00
      vertex   0.000000e+00 7.500000e+01 0.000000e+00
      vertex   -4.500000e+01 3.750000e+01 0.000000e+00
    endloop
  endfacet
  facet normal 0.000000e+00 0.000000e+00 -1.000000e+00
    outer loop
      vertex   -4.500000e+01 3.750000e+01 0.000000e+00
      vertex   0.000000e+00 7.500000e+01 0.000000e+00
      vertex   0.000000e+00 3.750000e+01 0.000000e+00
    endloop
  endfacet
  facet normal 0.000000e+00 0.000000e+00 -1.000000e+00
    outer loop
      vertex   -4.500000e+01 0.000000e+00 0.000000e+00
      vertex   0.000000e+00 3.750000e+01 0.000000e+00
      vertex   0.000000e+00 0.000000e+00 0.000000e+00
    endloop
  endfacet
  facet normal 0.000000e+00 0.000000e+00 -1.000000e+00
    outer loop
      vertex   -4.500000e+01 0.000000e+00 0.000000e+00
      vertex   -4.500000e+01 3.750000e+01 0.000000e+00
      vertex   0.000000e+00 3.750000e+01 0.000000e+00
    endloop
  endfacet
endsolid
